<svg xmlns="http://www.w3.org/2000/svg" viewBox="0 0 1200 450">

<!-- ROAD -->
<path d="M0 250 
C200 140 400 360 600 250 
S900 140 1200 250" fill="none" stroke="#3a3a3a" stroke-width="65" stroke-linecap="round"></path>

<!-- CENTER DASH -->
<path d="M0 250 
C200 140 400 360 600 250 
S900 140 1200 250" fill="none" stroke="white" stroke-width="6" stroke-dasharray="24 16" stroke-linecap="round"></path>


<!-- START MARKER -->
<circle cx="40" cy="250" r="16" fill="#27AE60"></circle>
<text x="40" y="210" text-anchor="middle" font-size="20" font-weight="700" fill="#27AE60">
START
</text>


<!-- STEP 1 -->
<g>
<path d="M170 160
a34 34 0 1 1 68 0
c0 32-34 64-34 64
s-34-32-34-64z" fill="#6C63FF"></path>
<text x="204" y="178" text-anchor="middle" fill="white" font-size="22" font-weight="bold">1</text>

<text x="210" y="300" text-anchor="middle" font-size="26" font-weight="700">Consultation</text>
<text x="210" y="325" text-anchor="middle" font-size="15" fill="#555">
Understanding your institution's needs
</text>
</g>


<!-- STEP 2 -->
<g>
<path d="M420 320
a34 34 0 1 1 68 0
c0 32-34 64-34 64
s-34-32-34-64z" fill="#00B894"></path>
<text x="454" y="338" text-anchor="middle" fill="white" font-size="22" font-weight="bold">2</text>

<text x="450" y="420" text-anchor="middle" font-size="26" font-weight="700">Customization</text>
</g>


<!-- STEP 3 -->
<g>
<path d="M690 150
a34 34 0 1 1 68 0
c0 32-34 64-34 64
s-34-32-34-64z" fill="#F6C26B"></path>
<text x="724" y="168" text-anchor="middle" fill="white" font-size="22" font-weight="bold">3</text>

<text x="725" y="300" text-anchor="middle" font-size="26" font-weight="700">Onboarding</text>
<text x="725" y="325" text-anchor="middle" font-size="15" fill="#555">
Training staff and launching the program
</text>
</g>


<!-- STEP 4 -->
<g>
<path d="M950 300
a34 34 0 1 1 68 0
c0 32-34 64-34 64
s-34-32-34-64z" fill="#E17055"></path>
<text x="984" y="318" text-anchor="middle" fill="white" font-size="22" font-weight="bold">4</text>

<text x="990" y="400" text-anchor="middle" font-size="26" font-weight="700">Support</text>
<text x="990" y="425" text-anchor="middle" font-size="15" fill="#555">
Ongoing assistance and optimization
</text>
</g>


<!-- FINISH FLAG -->
<line x1="1160" y1="230" x2="1160" y2="170" stroke="#E74C3C" stroke-width="5"></line>

<polygon points="1160,170 1200,185 1160,200" fill="#E74C3C"></polygon>

<text x="1160" y="270" text-anchor="middle" font-size="20" font-weight="700" fill="#E74C3C">
FINISH
</text>

</svg>